<svg width="9" height="9" viewBox="0 0 9 9" fill="none" xmlns="http://www.w3.org/2000/svg">
<path d="M1.8 7.8V8.1H2.4V7.8H1.8ZM6.6 7.8V8.1H7.2V7.8H6.6ZM2.4 7.8V7.5H1.8V7.8H2.4ZM3.9 6H5.1V5.4H3.9V6ZM6.6 7.5V7.8H7.2V7.5H6.6ZM5.1 6C5.49783 6 5.87936 6.15804 6.16066 6.43934C6.44197 6.72064 6.6 7.10218 6.6 7.5H7.2C7.2 6.94305 6.97875 6.4089 6.58492 6.01508C6.1911 5.62125 5.65695 5.4 5.1 5.4V6ZM2.4 7.5C2.4 7.10218 2.55804 6.72064 2.83934 6.43934C3.12064 6.15804 3.50218 6 3.9 6V5.4C3.34305 5.4 2.8089 5.62125 2.41508 6.01508C2.02125 6.4089 1.8 6.94305 1.8 7.5H2.4ZM4.5 1.8C4.10218 1.8 3.72064 1.95804 3.43934 2.23934C3.15804 2.52064 3 2.90218 3 3.3H3.6C3.6 3.06131 3.69482 2.83239 3.8636 2.6636C4.03239 2.49482 4.26131 2.4 4.5 2.4V1.8ZM6 3.3C6 2.90218 5.84197 2.52064 5.56066 2.23934C5.27936 1.95804 4.89782 1.8 4.5 1.8V2.4C4.7387 2.4 4.96761 2.49482 5.1364 2.6636C5.30518 2.83239 5.4 3.06131 5.4 3.3H6ZM4.5 4.8C4.89782 4.8 5.27936 4.64196 5.56066 4.36066C5.84197 4.07936 6 3.69782 6 3.3H5.4C5.4 3.5387 5.30518 3.76761 5.1364 3.9364C4.96761 4.10518 4.7387 4.2 4.5 4.2V4.8ZM4.5 4.2C4.26131 4.2 4.03239 4.10518 3.8636 3.9364C3.69482 3.76761 3.6 3.5387 3.6 3.3H3C3 3.69782 3.15804 4.07936 3.43934 4.36066C3.72064 4.64196 4.10218 4.8 4.5 4.8V4.2ZM4.5 8.4C3.46566 8.4 2.47368 7.98911 1.74228 7.25772C1.01089 6.52632 0.6 5.53434 0.6 4.5H0C0 5.69347 0.474106 6.83807 1.31802 7.68198C2.16193 8.52589 3.30653 9 4.5 9V8.4ZM8.4 4.5C8.4 5.01216 8.29912 5.5193 8.10313 5.99247C7.90714 6.46564 7.61987 6.89557 7.25772 7.25772C6.89557 7.61987 6.46564 7.90714 5.99247 8.10313C5.5193 8.29912 5.01216 8.4 4.5 8.4V9C5.69347 9 6.83807 8.52589 7.68198 7.68198C8.52589 6.83807 9 5.69347 9 4.5H8.4ZM4.5 0.6C5.01216 0.6 5.5193 0.700877 5.99247 0.89687C6.46564 1.09286 6.89557 1.38014 7.25772 1.74228C7.61987 2.10443 7.90714 2.53436 8.10313 3.00753C8.29912 3.4807 8.4 3.98784 8.4 4.5H9C9 3.30653 8.52589 2.16193 7.68198 1.31802C6.83807 0.474106 5.69347 0 4.5 0V0.6ZM4.5 0C3.30653 0 2.16193 0.474106 1.31802 1.31802C0.474106 2.16193 0 3.30653 0 4.5H0.6C0.6 3.46566 1.01089 2.47368 1.74228 1.74228C2.47368 1.01089 3.46566 0.6 4.5 0.6V0Z" fill="#404040"/>
</svg>
