<svg width="12" height="13" viewBox="0 0 12 13" fill="none" xmlns="http://www.w3.org/2000/svg">
<path d="M1.28395 13H10.2716C10.6121 13 10.9387 12.863 11.1795 12.6193C11.4203 12.3755 11.5555 12.0448 11.5555 11.7001V5.85028C11.556 5.76474 11.5398 5.67995 11.5079 5.60075C11.4759 5.52156 11.4289 5.44954 11.3694 5.3888L6.23357 0.189008C6.11329 0.0679495 5.95058 0 5.78098 0C5.61138 0 5.44867 0.0679495 5.32839 0.189008L0.192592 5.3888C0.131933 5.449 0.0836762 5.52078 0.0506167 5.6C0.0175571 5.67922 0.000352605 5.76429 0 5.85028V11.7001C0 12.0448 0.135273 12.3755 0.37606 12.6193C0.616847 12.863 0.943425 13 1.28395 13ZM4.49382 11.7001V8.45018H7.06172V11.7001H4.49382ZM1.28395 6.11677L5.77777 1.56695L10.2716 6.11677V11.7001H8.34567V8.45018C8.34567 8.10541 8.2104 7.77477 7.96961 7.53098C7.72882 7.28719 7.40225 7.15023 7.06172 7.15023H4.49382C4.1533 7.15023 3.82672 7.28719 3.58593 7.53098C3.34515 7.77477 3.20987 8.10541 3.20987 8.45018V11.7001H1.28395V6.11677Z" fill="white"/>
</svg>
