<svg width="13" height="12" viewBox="0 0 13 12" fill="none" xmlns="http://www.w3.org/2000/svg">
<path d="M11.8486 1.46187H9.42192V0.537431C9.42192 0.473875 9.36992 0.421875 9.30636 0.421875H8.49747C8.43392 0.421875 8.38192 0.473875 8.38192 0.537431V1.46187H4.68414V0.537431C4.68414 0.473875 4.63214 0.421875 4.56858 0.421875H3.75969C3.69614 0.421875 3.64414 0.473875 3.64414 0.537431V1.46187H1.21747C0.961805 1.46187 0.755249 1.66843 0.755249 1.9241V11.5152C0.755249 11.7709 0.961805 11.9774 1.21747 11.9774H11.8486C12.1042 11.9774 12.3108 11.7709 12.3108 11.5152V1.9241C12.3108 1.66843 12.1042 1.46187 11.8486 1.46187ZM11.2708 10.9374H1.79525V5.44854H11.2708V10.9374ZM1.79525 4.46632V2.50187H3.64414V3.19521C3.64414 3.25876 3.69614 3.31076 3.75969 3.31076H4.56858C4.63214 3.31076 4.68414 3.25876 4.68414 3.19521V2.50187H8.38192V3.19521C8.38192 3.25876 8.43392 3.31076 8.49747 3.31076H9.30636C9.36992 3.31076 9.42192 3.25876 9.42192 3.19521V2.50187H11.2708V4.46632H1.79525Z" fill="white"/>
</svg>
