<svg width="14" height="13" viewBox="0 0 14 13" fill="none" xmlns="http://www.w3.org/2000/svg">
<path d="M3.04446 11.2667V11.7H3.91112V11.2667H3.04446ZM9.97779 11.2667V11.7H10.8445V11.2667H9.97779ZM3.91112 11.2667V10.8333H3.04446V11.2667H3.91112ZM6.07779 8.66667H7.81112V7.8H6.07779V8.66667ZM9.97779 10.8333V11.2667H10.8445V10.8333H9.97779ZM7.81112 8.66667C8.38576 8.66667 8.93686 8.89494 9.34319 9.30127C9.74952 9.7076 9.97779 10.2587 9.97779 10.8333H10.8445C10.8445 10.0288 10.5249 9.2573 9.95602 8.68844C9.38715 8.11958 8.61561 7.8 7.81112 7.8V8.66667ZM3.91112 10.8333C3.91112 10.2587 4.1394 9.7076 4.54573 9.30127C4.95206 8.89494 5.50316 8.66667 6.07779 8.66667V7.8C5.2733 7.8 4.50176 8.11958 3.9329 8.68844C3.36404 9.2573 3.04446 10.0288 3.04446 10.8333H3.91112ZM6.94446 2.6C6.36982 2.6 5.81872 2.82827 5.41239 3.2346C5.00606 3.64093 4.77779 4.19203 4.77779 4.76667H5.64446C5.64446 4.42189 5.78142 4.09123 6.02522 3.84743C6.26902 3.60363 6.59968 3.46667 6.94446 3.46667V2.6ZM9.11112 4.76667C9.11112 4.19203 8.88285 3.64093 8.47652 3.2346C8.07019 2.82827 7.51909 2.6 6.94446 2.6V3.46667C7.28924 3.46667 7.6199 3.60363 7.8637 3.84743C8.10749 4.09123 8.24446 4.42189 8.24446 4.76667H9.11112ZM6.94446 6.93333C7.51909 6.93333 8.07019 6.70506 8.47652 6.29873C8.88285 5.8924 9.11112 5.3413 9.11112 4.76667H8.24446C8.24446 5.11145 8.10749 5.44211 7.8637 5.68591C7.6199 5.9297 7.28924 6.06667 6.94446 6.06667V6.93333ZM6.94446 6.06667C6.59968 6.06667 6.26902 5.9297 6.02522 5.68591C5.78142 5.44211 5.64446 5.11145 5.64446 4.76667H4.77779C4.77779 5.3413 5.00606 5.8924 5.41239 6.29873C5.81872 6.70506 6.36982 6.93333 6.94446 6.93333V6.06667ZM6.94446 12.1333C5.45041 12.1333 4.01754 11.5398 2.96109 10.4834C1.90463 9.42691 1.31112 7.99405 1.31112 6.5H0.444458C0.444458 8.22391 1.12928 9.87721 2.34826 11.0962C3.56725 12.3152 5.22055 13 6.94446 13V12.1333ZM12.5778 6.5C12.5778 7.23978 12.4321 7.97232 12.149 8.65578C11.8659 9.33925 11.4509 9.96027 10.9278 10.4834C10.4047 11.0065 9.78371 11.4214 9.10024 11.7045C8.41677 11.9876 7.68424 12.1333 6.94446 12.1333V13C8.66837 13 10.3217 12.3152 11.5407 11.0962C12.7596 9.87721 13.4445 8.22391 13.4445 6.5H12.5778ZM6.94446 0.866667C7.68424 0.866667 8.41677 1.01238 9.10024 1.29548C9.78371 1.57858 10.4047 1.99353 10.9278 2.51663C11.4509 3.03974 11.8659 3.66075 12.149 4.34422C12.4321 5.02768 12.5778 5.76022 12.5778 6.5H13.4445C13.4445 4.77609 12.7596 3.12279 11.5407 1.90381C10.3217 0.684819 8.66837 0 6.94446 0V0.866667ZM6.94446 0C5.22055 0 3.56725 0.684819 2.34826 1.90381C1.12928 3.12279 0.444458 4.77609 0.444458 6.5H1.31112C1.31112 5.00595 1.90463 3.57309 2.96109 2.51663C4.01754 1.46018 5.45041 0.866667 6.94446 0.866667V0Z" fill="white"/>
</svg>
