<svg width="14" height="12" viewBox="0 0 14 12" fill="none" xmlns="http://www.w3.org/2000/svg">
<path d="M8.23527 5.211C8.23527 5.09608 8.27808 4.98586 8.35428 4.90459C8.43048 4.82332 8.53383 4.77767 8.64159 4.77767H10.5377C10.6455 4.77767 10.7488 4.82332 10.825 4.90459C10.9012 4.98586 10.9441 5.09608 10.9441 5.211C10.9441 5.32593 10.9012 5.43615 10.825 5.51742C10.7488 5.59868 10.6455 5.64434 10.5377 5.64434H8.64159C8.53383 5.64434 8.43048 5.59868 8.35428 5.51742C8.27808 5.43615 8.23527 5.32593 8.23527 5.211ZM8.64159 6.79989C8.53383 6.79989 8.43048 6.84555 8.35428 6.92681C8.27808 7.00808 8.23527 7.1183 8.23527 7.23322C8.23527 7.34815 8.27808 7.45837 8.35428 7.53964C8.43048 7.6209 8.53383 7.66656 8.64159 7.66656H10.5377C10.6455 7.66656 10.7488 7.6209 10.825 7.53964C10.9012 7.45837 10.9441 7.34815 10.9441 7.23322C10.9441 7.1183 10.9012 7.00808 10.825 6.92681C10.7488 6.84555 10.6455 6.79989 10.5377 6.79989H8.64159ZM7.15176 5.06656C7.15176 5.29641 7.06614 5.51685 6.91374 5.67938C6.76134 5.84192 6.55465 5.93322 6.33912 5.93322C6.1236 5.93322 5.9169 5.84192 5.7645 5.67938C5.6121 5.51685 5.52649 5.29641 5.52649 5.06656C5.52649 4.8367 5.6121 4.61626 5.7645 4.45373C5.9169 4.2912 6.1236 4.19989 6.33912 4.19989C6.55465 4.19989 6.76134 4.2912 6.91374 4.45373C7.06614 4.61626 7.15176 4.8367 7.15176 5.06656ZM2.8177 6.511C2.67402 6.511 2.53622 6.57188 2.43462 6.68023C2.33302 6.78858 2.27594 6.93554 2.27594 7.08878V7.66656C2.27594 7.66656 2.27594 8.82211 3.76578 8.82211C5.25561 8.82211 5.25561 7.66656 5.25561 7.66656V7.08878C5.25561 6.93554 5.19853 6.78858 5.09693 6.68023C4.99533 6.57188 4.85753 6.511 4.71385 6.511H2.8177ZM4.71385 4.92211C4.71385 5.19028 4.61397 5.44746 4.43617 5.63708C4.25837 5.8267 4.01722 5.93322 3.76578 5.93322C3.51433 5.93322 3.27318 5.8267 3.09539 5.63708C2.91759 5.44746 2.8177 5.19028 2.8177 4.92211C2.8177 4.65395 2.91759 4.39677 3.09539 4.20715C3.27318 4.01753 3.51433 3.911 3.76578 3.911C4.01722 3.911 4.25837 4.01753 4.43617 4.20715C4.61397 4.39677 4.71385 4.65395 4.71385 4.92211V4.92211ZM6.33912 8.24434H5.68089C5.73824 8.09344 5.77562 7.93476 5.79195 7.77287C5.79411 7.74629 5.79574 7.72376 5.79628 7.70585V7.69834H5.79736V7.08878C5.79736 6.87847 5.74427 6.68087 5.65217 6.511H6.88088C7.02456 6.511 7.16236 6.57188 7.26396 6.68023C7.36556 6.78858 7.42264 6.93554 7.42264 7.08878C7.42264 7.39525 7.30848 7.68917 7.10528 7.90588C6.90208 8.12259 6.62649 8.24434 6.33912 8.24434ZM0.111084 2.611C0.111084 2.03637 0.325126 1.48527 0.706122 1.07894C1.08712 0.672609 1.60386 0.444336 2.14267 0.444336H11.0795C11.6183 0.444336 12.135 0.672609 12.516 1.07894C12.897 1.48527 13.1111 2.03637 13.1111 2.611V9.83322C13.1111 10.4079 12.897 10.959 12.516 11.3653C12.135 11.7716 11.6183 11.9999 11.0795 11.9999H2.14321C1.6044 11.9999 1.08766 11.7716 0.706664 11.3653C0.325668 10.959 0.111626 10.4079 0.111626 9.83322V2.611H0.111084ZM2.14267 1.311C1.81939 1.311 1.50934 1.44797 1.28074 1.69176C1.05214 1.93556 0.923719 2.26622 0.923719 2.611V9.83322C0.923719 10.178 1.05214 10.5087 1.28074 10.7525C1.50934 10.9963 1.81939 11.1332 2.14267 11.1332H11.0795C11.4028 11.1332 11.7128 10.9963 11.9414 10.7525C12.17 10.5087 12.2984 10.178 12.2984 9.83322V2.611C12.2984 2.26622 12.17 1.93556 11.9414 1.69176C11.7128 1.44797 11.4028 1.311 11.0795 1.311H2.14321H2.14267Z" fill="white"/>
</svg>
