<svg width="14" height="16" viewBox="0 0 14 16" fill="none" xmlns="http://www.w3.org/2000/svg">
<path d="M0.714233 2V14C0.714233 14.5304 0.942506 15.0391 1.34884 15.4142C1.75516 15.7893 2.30626 16 2.8809 16H13.1726C13.3162 16 13.454 15.9473 13.5556 15.8536C13.6572 15.7598 13.7142 15.6326 13.7142 15.5C13.7142 15.3674 13.6572 15.2402 13.5556 15.1464C13.454 15.0527 13.3162 15 13.1726 15H2.8809C2.59358 15 2.31803 14.8946 2.11487 14.7071C1.9117 14.5196 1.79757 14.2652 1.79757 14H12.6309C12.9182 14 13.1938 13.8946 13.3969 13.7071C13.6001 13.5196 13.7142 13.2652 13.7142 13V2C13.7142 1.46957 13.486 0.960859 13.0796 0.585786C12.6733 0.210714 12.1222 0 11.5476 0H2.8809C2.30626 0 1.75516 0.210714 1.34884 0.585786C0.942506 0.960859 0.714233 1.46957 0.714233 2V2ZM11.5476 1C11.8349 1 12.1104 1.10536 12.3136 1.29289C12.5168 1.48043 12.6309 1.73478 12.6309 2V13H1.79757V2C1.79757 1.73478 1.9117 1.48043 2.11487 1.29289C2.31803 1.10536 2.59358 1 2.8809 1H11.5476ZM8.9324 7.879C9.3025 7.36216 9.45152 6.73688 9.35056 6.12438C9.2496 5.51189 8.90586 4.95581 8.38597 4.56397C7.86609 4.17213 7.20711 3.97243 6.53678 4.0036C5.86646 4.03477 5.23255 4.29459 4.75796 4.73267C4.28337 5.17076 4.00191 5.7559 3.96814 6.37466C3.93437 6.99342 4.15071 7.60172 4.5752 8.08161C4.9997 8.5615 5.60211 8.8788 6.26565 8.97199C6.92919 9.06519 7.60657 8.92763 8.16648 8.586L9.53907 9.854C9.58943 9.90049 9.64922 9.93736 9.71502 9.96252C9.78082 9.98768 9.85134 10.0006 9.92257 10.0006C9.99379 10.0006 10.0643 9.98768 10.1301 9.96252C10.1959 9.93736 10.2557 9.90049 10.3061 9.854C10.3564 9.80751 10.3964 9.75232 10.4236 9.69158C10.4509 9.63084 10.4649 9.56574 10.4649 9.5C10.4649 9.43426 10.4509 9.36916 10.4236 9.30842C10.3964 9.24768 10.3564 9.19249 10.3061 9.146L8.9324 7.88V7.879ZM5.04757 6.5C5.04757 6.10218 5.21877 5.72064 5.52352 5.43934C5.82826 5.15804 6.24159 5 6.67257 5C7.10354 5 7.51687 5.15804 7.82162 5.43934C8.12636 5.72064 8.29757 6.10218 8.29757 6.5C8.29757 6.89782 8.12636 7.27936 7.82162 7.56066C7.51687 7.84196 7.10354 8 6.67257 8C6.24159 8 5.82826 7.84196 5.52352 7.56066C5.21877 7.27936 5.04757 6.89782 5.04757 6.5V6.5Z" fill="#929292"/>
</svg>
