<svg width="15" height="15" viewBox="0 0 15 15" fill="none" xmlns="http://www.w3.org/2000/svg">
<path d="M7.45092 7.05677C8.80083 7.05677 9.85075 5.86779 9.85075 4.40859C9.85075 2.94939 8.75083 1.81445 7.40093 1.81445C6.05102 1.81445 5.0011 3.00343 5.0011 4.40859C5.0011 5.86779 6.10102 7.05677 7.45092 7.05677ZM7.40093 2.89534C7.45092 2.89534 7.45092 2.89534 7.40093 2.89534C8.20087 2.89534 8.85082 3.59792 8.85082 4.46264C8.85082 5.32735 8.20087 5.97588 7.40093 5.97588C6.60098 5.97588 6.00103 5.2733 6.00103 4.46264C6.00103 3.59792 6.65098 2.89534 7.40093 2.89534V2.89534Z" fill="#929292"/>
<path d="M14.8501 6.73116C13.9001 5.8124 12.6502 5.326 11.3503 5.38004H10.9503C10.8503 5.8124 10.7004 6.19071 10.5004 6.51498C10.8003 6.46093 11.0503 6.46093 11.3503 6.46093C12.3002 6.40689 13.2502 6.73116 14.0001 7.32565V11.2169H15V6.89329L14.8501 6.73116Z" fill="#929292"/>
<path d="M10.1984 1.92086C10.4483 1.27232 11.1483 0.948054 11.7982 1.21828C12.3982 1.4885 12.6982 2.24512 12.4482 2.9477C12.2482 3.4341 11.7982 3.75837 11.3483 3.75837C11.2483 3.75837 11.0983 3.75837 10.9983 3.70433C11.0483 3.97455 11.0483 4.24477 11.0483 4.46095V4.78522C11.1483 4.78522 11.2483 4.83926 11.3483 4.83926C12.5982 4.83926 13.5981 3.75837 13.5981 2.4613C13.5981 1.11019 12.5982 0.0292969 11.3983 0.0292969C10.5983 0.0292969 9.89838 0.461653 9.49841 1.21828C9.7484 1.38041 9.99838 1.59659 10.1984 1.92086V1.92086Z" fill="#929292"/>
<path d="M4.49968 6.5687C4.29969 6.24443 4.1497 5.86612 4.04971 5.43376H3.64974C2.34983 5.37972 1.09992 5.86612 0.149989 6.73083L0 6.89296V11.2165H0.999928V7.32532C1.79987 6.73083 2.69981 6.40656 3.64974 6.46061C3.94972 6.46061 4.24969 6.51465 4.49968 6.5687Z" fill="#929292"/>
<path d="M3.6518 4.7862C3.75179 4.7862 3.85179 4.78619 3.95178 4.73215V4.40788C3.95178 4.13766 3.95178 3.86744 4.00177 3.65126C3.90178 3.7053 3.75179 3.7053 3.6518 3.7053C3.00185 3.7053 2.45189 3.11081 2.45189 2.40823C2.45189 1.70566 3.00185 1.11117 3.6518 1.11117C4.15176 1.11117 4.60173 1.43543 4.80172 1.92183C5.0017 1.65161 5.30168 1.38139 5.55166 1.16521C4.90171 0.0302753 3.55181 -0.348037 2.50188 0.354542C1.45196 1.05712 1.10198 2.51632 1.75194 3.65126C2.15191 4.35384 2.85186 4.7862 3.6518 4.7862V4.7862Z" fill="#929292"/>
<path d="M11.5475 9.97424L11.4475 9.8121C10.4475 8.62312 9.04765 7.92054 7.54776 7.97459C6.04786 7.92054 4.59797 8.62312 3.59804 9.8121L3.49805 9.97424V14.0816C3.49805 14.568 3.84802 15.0004 4.34799 15.0004H10.7475C11.1975 15.0004 11.5975 14.568 11.5975 14.0816V9.97424H11.5475ZM10.5475 13.9195H4.49798V10.3525C5.29792 9.48783 6.39784 9.05548 7.54776 9.05548C8.64768 9.00143 9.7476 9.48783 10.5475 10.3525V13.9195Z" fill="#929292"/>
</svg>
