<svg width="8" height="9" viewBox="0 0 8 9" fill="none" xmlns="http://www.w3.org/2000/svg">
<path d="M0.888888 9H7.1111C7.34685 9 7.57294 8.90518 7.73964 8.73641C7.90634 8.56763 7.99999 8.33872 7.99999 8.10004V4.0502C8.00033 3.99098 7.98912 3.93227 7.967 3.87744C7.94488 3.82262 7.91229 3.77275 7.8711 3.73071L4.31555 0.130852C4.23228 0.0470419 4.11963 0 4.00222 0C3.8848 0 3.77216 0.0470419 3.68889 0.130852L0.133333 3.73071C0.0913385 3.77238 0.0579297 3.82208 0.0350423 3.87692C0.0121549 3.93177 0.000244111 3.99066 0 4.0502V8.10004C0 8.33872 0.0936504 8.56763 0.260349 8.73641C0.427048 8.90518 0.65314 9 0.888888 9ZM3.11111 8.10004V5.85012H4.88888V8.10004H3.11111ZM0.888888 4.23469L4 1.08481L7.1111 4.23469V8.10004H5.77777V5.85012C5.77777 5.61144 5.68412 5.38253 5.51742 5.21375C5.35072 5.04498 5.12463 4.95016 4.88888 4.95016H3.11111C2.87536 4.95016 2.64927 5.04498 2.48257 5.21375C2.31587 5.38253 2.22222 5.61144 2.22222 5.85012V8.10004H0.888888V4.23469Z" fill="#28D077"/>
</svg>
