<svg width="9" height="9" viewBox="0 0 9 9" fill="none" xmlns="http://www.w3.org/2000/svg">
<path d="M8.66437 1.70437H6.98438V1.06437C6.98438 1.02037 6.94837 0.984375 6.90438 0.984375H6.34437C6.30037 0.984375 6.26437 1.02037 6.26437 1.06437V1.70437H3.70438V1.06437C3.70438 1.02037 3.66838 0.984375 3.62437 0.984375H3.06437C3.02038 0.984375 2.98438 1.02037 2.98438 1.06437V1.70437H1.30437C1.12737 1.70437 0.984375 1.84737 0.984375 2.02437V8.66437C0.984375 8.84137 1.12737 8.98438 1.30437 8.98438H8.66437C8.84137 8.98438 8.98438 8.84137 8.98438 8.66437V2.02437C8.98438 1.84737 8.84137 1.70437 8.66437 1.70437ZM8.26437 8.26437H1.70437V4.46438H8.26437V8.26437ZM1.70437 3.78437V2.42437H2.98438V2.90437C2.98438 2.94837 3.02038 2.98438 3.06437 2.98438H3.62437C3.66838 2.98438 3.70438 2.94837 3.70438 2.90437V2.42437H6.26437V2.90437C6.26437 2.94837 6.30037 2.98438 6.34437 2.98438H6.90438C6.94837 2.98438 6.98438 2.94837 6.98438 2.90437V2.42437H8.26437V3.78437H1.70437Z" fill="#28D077"/>
</svg>
