<svg width="9" height="8" viewBox="0 0 9 8" fill="none" xmlns="http://www.w3.org/2000/svg">
<path d="M5.62444 3.3C5.62444 3.22044 5.65407 3.14413 5.70683 3.08787C5.75958 3.03161 5.83113 3 5.90573 3H7.21845C7.29306 3 7.36461 3.03161 7.41736 3.08787C7.47011 3.14413 7.49975 3.22044 7.49975 3.3C7.49975 3.37957 7.47011 3.45587 7.41736 3.51213C7.36461 3.56839 7.29306 3.6 7.21845 3.6H5.90573C5.83113 3.6 5.75958 3.56839 5.70683 3.51213C5.65407 3.45587 5.62444 3.37957 5.62444 3.3ZM5.90573 4.4C5.83113 4.4 5.75958 4.43161 5.70683 4.48787C5.65407 4.54413 5.62444 4.62044 5.62444 4.7C5.62444 4.77956 5.65407 4.85587 5.70683 4.91213C5.75958 4.96839 5.83113 5 5.90573 5H7.21845C7.29306 5 7.36461 4.96839 7.41736 4.91213C7.47011 4.85587 7.49975 4.77956 7.49975 4.7C7.49975 4.62044 7.47011 4.54413 7.41736 4.48787C7.36461 4.43161 7.29306 4.4 7.21845 4.4H5.90573ZM4.87431 3.2C4.87431 3.35913 4.81504 3.51174 4.70953 3.62426C4.60403 3.73679 4.46093 3.8 4.31172 3.8C4.16251 3.8 4.01941 3.73679 3.9139 3.62426C3.8084 3.51174 3.74912 3.35913 3.74912 3.2C3.74912 3.04087 3.8084 2.88826 3.9139 2.77574C4.01941 2.66321 4.16251 2.6 4.31172 2.6C4.46093 2.6 4.60403 2.66321 4.70953 2.77574C4.81504 2.88826 4.87431 3.04087 4.87431 3.2ZM1.87381 4.2C1.77434 4.2 1.67894 4.24214 1.6086 4.31716C1.53827 4.39217 1.49875 4.49391 1.49875 4.6V5C1.49875 5 1.49875 5.8 2.53017 5.8C3.56159 5.8 3.56159 5 3.56159 5V4.6C3.56159 4.49391 3.52208 4.39217 3.45174 4.31716C3.3814 4.24214 3.286 4.2 3.18653 4.2H1.87381ZM3.18653 3.1C3.18653 3.28565 3.11738 3.4637 2.99429 3.59497C2.8712 3.72625 2.70425 3.8 2.53017 3.8C2.35609 3.8 2.18915 3.72625 2.06606 3.59497C1.94296 3.4637 1.87381 3.28565 1.87381 3.1C1.87381 2.91435 1.94296 2.7363 2.06606 2.60503C2.18915 2.47375 2.35609 2.4 2.53017 2.4C2.70425 2.4 2.8712 2.47375 2.99429 2.60503C3.11738 2.7363 3.18653 2.91435 3.18653 3.1ZM4.31172 5.4H3.85602C3.89572 5.29553 3.9216 5.18568 3.93291 5.0736C3.93441 5.0552 3.93553 5.0396 3.93591 5.0272V5.022H3.93666V4.6C3.93666 4.4544 3.8999 4.3176 3.83614 4.2H4.68678C4.78625 4.2 4.88165 4.24214 4.95199 4.31716C5.02233 4.39217 5.06184 4.49391 5.06184 4.6C5.06184 4.81217 4.98281 5.01566 4.84214 5.16569C4.70146 5.31571 4.51066 5.4 4.31172 5.4ZM0 1.5C0 1.10218 0.148183 0.720644 0.41195 0.43934C0.675717 0.158035 1.03346 0 1.40648 0H7.59352C7.96654 0 8.32428 0.158035 8.58805 0.43934C8.85182 0.720644 9 1.10218 9 1.5V6.5C9 6.89782 8.85182 7.27936 8.58805 7.56066C8.32428 7.84197 7.96654 8 7.59352 8H1.40686C1.03384 8 0.676092 7.84197 0.412325 7.56066C0.148558 7.27936 0.000375125 6.89782 0.000375125 6.5V1.5H0ZM1.40648 0.6C1.18267 0.6 0.968024 0.694821 0.809764 0.863604C0.651503 1.03239 0.562594 1.26131 0.562594 1.5V6.5C0.562594 6.7387 0.651503 6.96761 0.809764 7.1364C0.968024 7.30518 1.18267 7.4 1.40648 7.4H7.59352C7.81733 7.4 8.03198 7.30518 8.19024 7.1364C8.3485 6.96761 8.43741 6.7387 8.43741 6.5V1.5C8.43741 1.26131 8.3485 1.03239 8.19024 0.863604C8.03198 0.694821 7.81733 0.6 7.59352 0.6H1.40686H1.40648Z" fill="#28D077"/>
</svg>
